<svg xmlns="http://www.w3.org/2000/svg" id="SvgjsSvg14317" width="4096" height="1264.7806428034578" version="1.1" xmlns:xlink="http://www.w3.org/1999/xlink" xmlns:svgjs="http://svgjs.com/svgjs"><defs id="SvgjsDefs14318"></defs><g id="SvgjsG14319" transform="translate(328, 328) scale(34.4)" opacity="1"><defs id="SvgjsDefs4506"><linearGradient id="SvgjsLinearGradientEi1MKDi2G" gradientUnits="userSpaceOnUse" x1="2.8421709430404e-14" y1="267.7" x2="267.7" y2="-1.4210854715202e-14"><stop id="SvgjsStop4509" stop-color="#49b1ef" offset="0.05"></stop><stop id="SvgjsStop4510" stop-color="#0f70a9" offset="0.95"></stop></linearGradient></defs><g id="SvgjsG4507" transform="scale(0.2145922746781116)" opacity="1"><g id="SvgjsG4511" class="nunxdYQIu" transform="translate(0, 0) scale(0.308063281904435)" light-content="false" non-strokable="false" fill="url(#SvgjsLinearGradientEi1MKDi2G)"><circle cx="133.8" cy="133.8" r="133.8"></circle></g><g id="SvgjsG4512" class="6feK2iI53v" transform="translate(14.844337301847073, 14.844337301847087) scale(0.5277986596212304)" light-content="true" non-strokable="false" fill="#ffffff"><path d="M30 10v33.333h26.667V70H90V10z"></path><path d="M10 50h40v40H10z"></path></g><g id="SvgjsG4513" class="text" transform="translate(283.29801116398085, 65.2626378803132) scale(1)" light-content="false" fill="#444444"><path d="M-170.32 0L-160.73 0C-153.51 0 -149.9 -3.61 -149.9 -10.83L-149.9 -17.02L-150.21 -17.02L-156.09 -14.23L-156.09 -10.83C-156.09 -7.32 -157.63 -5.57 -160.73 -5.57L-170.32 -5.57C-173.42 -5.57 -174.96 -7.32 -174.96 -10.83L-174.96 -35.89C-174.96 -39.4 -173.42 -41.15 -170.32 -41.15L-160.73 -41.15C-157.63 -41.15 -156.09 -39.4 -156.09 -35.89L-156.09 -29.7L-155.78 -29.7L-149.9 -32.49L-149.9 -35.89C-149.9 -43.11 -153.51 -46.72 -160.73 -46.72L-170.32 -46.72C-177.54 -46.72 -181.15 -43.11 -181.15 -35.89L-181.15 -10.83C-181.15 -3.61 -177.54 0 -170.32 0Z M-131.19 1.24L-130.88 1.24L-125 -1.55L-125 -47.96L-125.31 -47.96L-131.19 -45.17Z M-98.55 -5.57C-100.61 -5.57 -101.64 -6.81 -101.64 -9.28L-101.64 -24.75C-101.64 -27.23 -100.61 -28.47 -98.55 -28.47L-91.43 -28.47C-89.37 -28.47 -88.34 -27.23 -88.34 -24.75L-88.34 -9.28C-88.34 -6.81 -89.37 -5.57 -91.43 -5.57ZM-98.55 0L-91.43 0C-85.24 0 -82.15 -3.09 -82.15 -9.28L-82.15 -24.75C-82.15 -30.94 -85.24 -34.04 -91.43 -34.04L-98.55 -34.04C-104.74 -34.04 -107.83 -30.94 -107.83 -24.75L-107.83 -9.28C-107.83 -3.09 -104.74 0 -98.55 0Z M-57.25 0L-50.13 0C-43.94 0 -40.85 -3.09 -40.85 -9.28L-40.85 -35.27L-41.16 -35.27L-47.04 -32.49L-47.04 -9.28C-47.04 -6.81 -48.07 -5.57 -50.13 -5.57L-57.25 -5.57C-59.31 -5.57 -60.34 -6.81 -60.34 -9.28L-60.34 -35.27L-60.65 -35.27L-66.53 -32.49L-66.53 -9.28C-66.53 -3.09 -63.44 0 -57.25 0Z M-15.95 0L-8.83 0C-2.64 0 0.45 -3.09 0.45 -9.28L0.45 -47.96L0.14 -47.96L-5.74 -45.17L-5.74 -33.08C-6.4 -33.72 -7.43 -34.04 -8.83 -34.04L-15.95 -34.04C-22.14 -34.04 -25.23 -30.94 -25.23 -24.75L-25.23 -9.28C-25.23 -3.09 -22.14 0 -15.95 0ZM-15.95 -5.57C-18.01 -5.57 -19.04 -6.81 -19.04 -9.28L-19.04 -24.75C-19.04 -27.23 -18.01 -28.47 -15.95 -28.47L-8.83 -28.47C-6.77 -28.47 -5.74 -27.23 -5.74 -24.75L-5.74 -9.28C-5.74 -6.81 -6.77 -5.57 -8.83 -5.57Z M25.35 -5.57L25.35 -41.15L38.97 -41.15C42.06 -41.15 43.61 -39.4 43.61 -35.89L43.61 -10.83C43.61 -7.32 42.06 -5.57 38.97 -5.57ZM19.17 0L38.97 0C46.19 0 49.8 -3.61 49.8 -10.83L49.8 -35.89C49.8 -43.11 46.19 -46.72 38.97 -46.72L22.45 -46.72L19.17 -45.17Z M66.96 1.24L67.27 1.24L73.15 -1.55L73.15 -24.75C73.15 -27.23 74.18 -28.47 76.25 -28.47L81.51 -28.47L83.98 -33.73L83.98 -34.04L76.25 -34.04C70.06 -34.04 66.96 -30.94 66.96 -24.75Z M96.51 -43.55C96.51 -42.51 96.87 -41.62 97.59 -40.87C98.31 -40.13 99.19 -39.76 100.22 -39.76C101.25 -39.76 102.13 -40.13 102.85 -40.87C103.57 -41.62 103.93 -42.51 103.93 -43.55C103.93 -44.59 103.57 -45.48 102.85 -46.23C102.13 -46.97 101.25 -47.34 100.22 -47.34C99.19 -47.34 98.31 -46.97 97.59 -46.23C96.87 -45.48 96.51 -44.59 96.51 -43.55ZM97.13 1.24L97.43 1.24L103.31 -1.55L103.31 -35.27L103 -35.27L97.13 -32.49Z M129.33 1.24L129.64 1.24L134.99 -1.3L146.04 -32.74L140.69 -35.27L140.38 -35.27L131.8 -9.47L123.05 -35.27L122.74 -35.27L117.39 -32.74Z M166.3 0L173.42 0C179.6 0 182.7 -3.09 182.7 -9.28L182.7 -13.71L182.39 -13.71L176.51 -10.92L176.51 -9.28C176.51 -6.81 175.48 -5.57 173.42 -5.57L166.3 -5.57C164.59 -5.57 163.59 -6.42 163.3 -8.11L182.7 -23.11L182.7 -24.75C182.7 -30.94 179.6 -34.04 173.42 -34.04L166.3 -34.04C160.11 -34.04 157.02 -30.94 157.02 -24.75L157.02 -9.28C157.02 -3.09 160.11 0 166.3 0ZM163.2 -14.57L163.2 -24.75C163.2 -27.23 164.24 -28.47 166.3 -28.47L173.42 -28.47C175.33 -28.47 176.35 -27.4 176.48 -25.28Z"></path></g></g></g></svg>